<svg xmlns="http://www.w3.org/2000/svg" viewBox="0 0 198.4 215"><path fill="#C3B078" d="M125.3 125.8v14.1h-12.9v33.2h13.2v13.3h13.2V213H59.9v-26.5h12.6v-13.3h13.3V140H73v-14.2c-.4-.4-1.5-1.1-2.2-2.1-2.7-3.9-6.7-5-11-5.9-7-1.4-13.2-4.6-19.1-8.6C32 103.3 25.1 95.7 19.4 87 11.1 74.1 5.7 60.1 3.3 45 2.1 37.6 1.7 30.1 1 22.6v-1.8h32.5V3.9H165v16.8h31.4c.1 1.1.2 2 .2 2.8-.4 14.6-2.8 28.9-8 42.7-6.2 16.5-15.5 30.9-29.8 41.7-7.5 5.7-15.9 9.4-25.3 10.9-1 .2-2 .8-2.7 1.4-2 1.9-3.9 3.9-5.5 5.6zM35 34.2H14.3c1.8 7.7 3.2 15.2 5.3 22.5 2.3 8.1 5.9 15.7 10.6 22.8 4.3 6.6 9.3 12.4 15.5 17.1 2.6 2 5.6 3.6 8.4 5.4.2-.2.3-.4.5-.6-11.1-21-16.7-43.7-19.6-67.2zm129.1 0c-2.5 11.8-4.7 23.2-7.5 34.6-2.7 11.3-7.2 22.1-12.3 32.6 25.4-15.2 34.5-39.6 38.6-67.2h-18.8z"/></svg>