<svg xmlns="http://www.w3.org/2000/svg" xmlns:xlink="http://www.w3.org/1999/xlink" width="463.263" height="92.172"><defs><path id="a" d="M0 0h463.262v92.172H0z"/></defs><clipPath id="b"><use xlink:href="#a" overflow="visible"/></clipPath><path clip-path="url(#b)" fill="#FFF" d="M411.133 56.732c.055.201.109.405.168.603.018.06.034.12.053.18.107.351.224.694.345 1.034.036.103.074.204.112.306.102.275.209.547.32.816.032.075.061.151.093.226.139.326.286.647.439.962.041.086.084.169.127.254.126.254.257.504.393.75.043.079.085.158.129.235.172.304.35.601.535.894l.125.191c.157.241.318.478.484.711.053.075.106.151.16.225.206.281.416.557.635.826l.094.112a20.86 20.86 0 0 0 .793.904c.239.257.483.512.737.758a21.243 21.243 0 0 0 4.911 3.503c.732.38 1.494.726 2.287 1.037 3.568 1.402 7.758 2.102 12.57 2.102 4.942 0 9.566-1.219 13.875-3.658 4.308-2.438 7.729-5.68 10.264-9.723l-.76-.482c-2.471 3.851-5.797 6.964-9.979 9.339-4.182 2.375-8.649 3.562-13.4 3.562-3.992 0-7.16-1.605-9.504-4.814-1.268-1.797-1.901-8.375-1.901-19.735h.002l-.007-2.566-.042-.003s-3.334.33-8.709 5.255c-3.238 3.113-4.881 5.478-5.349 6.196m-176.433 0c.056.201.109.405.169.603l.052.18c.108.351.224.694.345 1.034l.113.306c.102.275.209.547.32.816l.092.226c.14.326.287.647.439.962l.127.254c.127.254.258.504.394.75.043.079.084.158.128.235.172.304.35.601.535.894.041.064.084.127.126.191.156.241.318.478.483.711l.161.225c.205.281.416.557.635.826.03.038.063.074.094.112a20.83 20.83 0 0 0 .792.904c.24.257.484.512.737.758a21.249 21.249 0 0 0 4.912 3.503c.731.38 1.493.726 2.286 1.037 3.569 1.402 7.759 2.102 12.57 2.102 4.942 0 9.567-1.219 13.876-3.658 4.307-2.438 7.729-5.68 10.264-9.723l-.761-.482c-2.471 3.851-5.797 6.964-9.979 9.339-4.181 2.375-8.648 3.562-13.4 3.562-3.992 0-7.16-1.605-9.504-4.814-1.267-1.797-1.901-8.375-1.901-19.735h.002l-.006-2.566-.043-.003s-3.333.33-8.709 5.255c-3.237 3.113-4.881 5.478-5.349 6.196M56.089 23.225c.044-.056.087-.112.133-.165-8.138.541-9.999 6.365-10.165 6.72L34.899 57.532 23.847 30.001c-1.71-4.752-3.641-7.127-5.794-7.127H0v.962c2.154 0 3.675.289 4.562.867 1.014.577 2.154 2.471 3.422 5.679l13.935 35.48c1.512 3.892 2.301 5.902 2.367 6.03.298.776 1.437 1.041 2.586 1.041h3.065l5.55-14.04 11.462-28.749c.003 0 .029-.071.031-.07 2.463-5.856 8.565-5.934 8.565-5.934s.121-.281.318-.594l.053-.081c.054-.08.11-.162.173-.24m15.102-15.75C71.191 3.347 67.889 0 63.816 0s-7.375 3.347-7.375 7.475c0 4.129 3.302 7.476 7.375 7.476s7.375-3.347 7.375-7.476m14.677 57.801c0 4.378-2.389 6.616-7.151 6.728-4.86-.091-7.298-2.33-7.298-6.73V30.617c0-4.377 2.414-6.616 7.226-6.728 4.81.091 7.223 2.331 7.223 6.731v34.656zm51.898 7.702h4.535v-.963c-5.016 0-7.524-2.246-7.524-6.739v-25.03c0-11.872-8.152-17.809-24.455-17.809-3.276 0-6.339.982-9.822 3.475-.18-.421-.361-.811-.901-1.472-.784-.994-1.88-1.522-2.445-1.522H79.022v-.002H60.014c-2.534 0-3.801 2.568-3.801 7.701v34.657c0 4.493-2.534 6.739-7.603 6.739v.963h29.733v.002h30.098v-.963c-5.016 0-7.524-2.246-7.524-6.739V30.62c0-1.284-.117-2.997-.188-3.659 3.134-2.374 6.332-3.562 9.593-3.562 6.27 0 9.406 5.937 9.406 17.81v12.36c.021.601-.039 1.261.081 2.403.511 12.387 11.772 17.006 17.957 17.006m42.479-38.781c-.353.486-2.065 2.846-2.496 3.589-.613.979-3.195 5.183-3.676 6.054-.48.87-4.234 7.837-4.234 7.837s-4.203 8.047-10.619 12.769c-.695-3.567-1.045-9.075-1.045-16.543 0-8.728.475-14.793 1.426-18.195 1.203-4.235 4.529-6.353 9.979-6.353 4.815 0 7.919 1.701 9.313 5.102.567 1.41 1.016 3.33 1.352 5.74m7.19-6.713c-4.471-3.394-10.422-5.092-17.855-5.092-8.491 0-15.048 2.214-19.673 6.643-4.626 4.493-6.938 10.782-6.938 18.868 0 8.152 2.281 14.441 6.843 18.869a20.905 20.905 0 0 0 3.536 2.716c.715-.341 3.922-2.165 6.105-3.962l-.001-.002c.639-.519 4.47-3.68 6.766-6.778 1.405-1.681 4.036-5.705 4.985-7.699.828-1.67 5.681-10.259 6.522-11.472.618-.952 1.904-2.98 2.689-4.061v.005l.147-.204a3.55 3.55 0 0 1 .047-.064v-.002c1.558-2.172 4.414-5.909 6.827-7.765m8.755 20.419c0-8.086-2.313-14.375-6.938-18.868-.197-.189-.402-.368-.606-.549l-.008.008s-4.426 3.688-7.996 9.395c.227 2.85.342 6.183.342 10.014 0 9.499-.697 15.981-2.091 19.447-1.394 3.402-4.498 5.102-9.313 5.102-4.951 0-8.143-1.754-9.589-5.25l-.002.001s-3.153 2.402-4.925 3.213l-.039.006c3.97 1.992 8.818 2.993 14.555 2.993 8.553 0 15.142-2.214 19.767-6.643 4.562-4.428 6.843-10.717 6.843-18.869m22.748-20.772c6.919-1.514 13.346-7.069 13.346-7.069s-.403-.505-.583-.727c-3.249 2.685-6.511 4.384-7.147 4.715-2.342 1.316-5.183 2.01-5.555 2.098V9.396h-9.503c0 8.985-3.042 13.477-9.124 13.477h-.429c-.873-.009-2.882-.018-3.846.12-1.813.156-3.825 1.039-3.825 1.039l.33.865c1.961-.795 3.214-.989 4.279-1.046h.009c.014-.001.029-.001.043-.003.341-.017.663-.021.984-.027h.13c.554.01 1.112.049 1.606.096.885.09 1.634.211 1.634.211v-.001c.433.111 2.397.637 4.895 1.61 3.015 1.045 5.153 1.658 7.603 1.79 1.863.112 3.827-.114 5.148-.399l.005.003M233.602 67l-.855-.385c-1.521 3.338-4.116 5.642-8.02 5.779-3.799.134-5.728-3.215-5.728-9.762V28.411c-.308.084-4.056 1.055-9.118-.187a67.15 67.15 0 0 1-3.495-1.081c-.289-.108-4.048-1.478-4.349-1.49l-.015-.001c1.177 1.121 1.771 2.759 1.771 4.923v18.772c0 16.046 7.027 25.333 20.908 24.068 4.782-.436 7.254-2.692 8.901-6.415m37.108-51.088l-.192-.913s-4.889 1.453-8.841-1.466c-.913-.661-1.79-1.669-1.898-1.826-.108-.156-1.982-2.822-5.345-3.759-.529-.12-2.535-.805-5.706-.169l.204.913s2.679-.648 5.177.157c2.439.744 3.532 1.825 4.601 3.039.949 1.081 1.657 2.248 4.216 3.435 3.159 1.465 6.138.949 7.784.589m.905 30.975h-.001l.001.181-.19.137c-2.815-.741-8.593-3.014-13.292-4.134-5.013-1.195-8.158-.592-9.245-.391l-.024-.008c.191-6.791.867-11.617 2.032-14.461 1.394-3.273 4.498-4.91 9.314-4.91 4.878 0 8.204 1.958 9.979 5.873.95 2.054 1.426 7.958 1.426 17.713m15.215 2.418l-.009-1.092v-1.427l-.013-.005-.002-.239-.009-.004c-.24-7.457-2.543-13.31-6.914-17.557-4.626-4.428-11.183-6.642-19.673-6.642s-15.048 2.214-19.673 6.642c-4.625 4.493-6.938 10.782-6.938 18.869a41.133 41.133 0 0 0 .08 2.465c.097 1.6.286 3.126.577 4.568 1.063-1.967 7.771-9.747 14.582-11.234v-.007l.077-.017c.083-.018.164-.03.247-.046l.047-.01.003.001c4.042-.766 7.68.171 8.681.39 1.009.192 6.331 1.849 9.189 2.847a67.95 67.95 0 0 0 4.709 1.441l.018-.003c.746.236 8.259 2.52 15.009 1.06v-.003l.012.003zm37.766-22.404a34.898 34.898 0 0 0-.183 3.658v38.316c-2.981 2.31-6.021 3.465-9.123 3.465-3.954 0-6.631-1.829-8.029-5.487-.73-2.053-1.095-8.375-1.095-18.965 0-10.91.365-17.264 1.095-19.061 1.46-3.658 4.136-5.487 8.029-5.487 3.162 0 6.264 1.187 9.306 3.561m85.878 45.07c-5.069 0-7.603-2.246-7.603-6.739V30.575c0-5.134-1.268-7.702-3.802-7.702h-19.008v.963c5.069 0 7.603 2.247 7.603 6.739v34.657c0 1.284.064 2.503.191 3.658-3.169 2.375-6.4 3.562-9.694 3.562-6.337 0-9.504-3.369-9.504-10.108V40.141c-.77-12.638-11.581-17.322-18.353-17.281h-3.994v-.002h-18.247c-.548 0-1.202.498-1.962 1.492-.76.995-1.202 1.492-1.323 1.492-3.284-2.31-6.448-3.465-9.488-3.465-7.178 0-12.926 2.262-17.244 6.787-4.319 4.524-6.478 10.766-6.478 18.724 0 7.959 2.144 14.184 6.432 18.676 4.289 4.493 10.051 6.739 17.29 6.739 3.04 0 6.082-1.059 9.123-3.177V84.47c0 5.134 1.216 7.702 3.65 7.702h18.247v-.963c-4.866 0-7.299-2.246-7.299-6.739V30.559c0-4.416 2.357-6.657 7.06-6.731 4.918.066 7.38 2.322 7.38 6.747v25.03c0 11.873 8.236 17.81 24.71 17.81 3.167 0 6.462-1.155 9.884-3.466.126 0 .585.498 1.378 1.492.791.995 1.473 1.492 2.043 1.492h19.008v-.962zm37.573-25.084v.181l-.19.137c-2.815-.741-8.592-3.014-13.291-4.134-5.013-1.195-8.159-.592-9.246-.391l-.024-.008c.191-6.791.867-11.617 2.033-14.461 1.393-3.273 4.498-4.91 9.314-4.91 4.878 0 8.204 1.958 9.978 5.873.951 2.054 1.426 7.958 1.426 17.713m15.203.963h.003c0-.112-.005-.22-.006-.331l-.008-.977-.01-.004c-.239-7.457-2.542-13.31-6.914-17.557-4.625-4.428-11.183-6.642-19.672-6.642-8.491 0-15.048 2.214-19.673 6.642-4.626 4.493-6.938 10.782-6.938 18.869a41.133 41.133 0 0 0 .079 2.465c.097 1.6.287 3.126.578 4.568 1.062-1.967 7.771-9.747 14.581-11.234v-.007l.078-.017c.082-.018.164-.03.246-.046l.047-.01.004.001c4.042-.766 7.68.171 8.681.39 1.009.192 6.33 1.849 9.189 2.847a67.95 67.95 0 0 0 4.709 1.441l.017-.003c.747.236 8.26 2.52 15.01 1.06l-.001-.003.013.003-.013-1.455z"/></svg>