<?xml version="1.0" encoding="utf-8"?>
<!-- Generator: Adobe Illustrator 18.1.0, SVG Export Plug-In . SVG Version: 6.00 Build 0)  -->
<svg version="1.1" id="Layer_1" xmlns="http://www.w3.org/2000/svg" xmlns:xlink="http://www.w3.org/1999/xlink" x="0px" y="0px"
	 viewBox="0 0 198.4 215" enable-background="new 0 0 198.4 215" xml:space="preserve">
<g>
	<path fill="#C3B078" d="M125.3,125.8c0,5,0,9.4,0,14.1c-4.2,0-8.5,0-12.9,0c0,11.1,0,22,0,33.2c4.4,0,8.7,0,13.2,0
		c0,4.5,0,8.7,0,13.3c4.5,0,8.8,0,13.2,0c0,9,0,17.7,0,26.6c-26.2,0-52.5,0-78.9,0c0-8.8,0-17.6,0-26.5c4.2,0,8.3,0,12.6,0
		c0-4.4,0-8.8,0-13.3c4.6,0,8.9,0,13.3,0c0-11.2,0-22.1,0-33.2c-4.4,0-8.7,0-12.8,0c0-4.7,0-9.2,0-14.2c-0.4-0.4-1.5-1.1-2.2-2.1
		c-2.7-3.9-6.7-5-11-5.9c-7-1.4-13.2-4.6-19.1-8.6c-8.7-5.9-15.6-13.5-21.3-22.2C11.1,74.1,5.7,60.1,3.3,45
		C2.1,37.6,1.7,30.1,1,22.6c0-0.5,0-1,0-1.8c10.9,0,21.6,0,32.5,0c0-5.7,0-11.2,0-16.9c43.7,0,87.6,0,131.5,0c0,5.6,0,11.1,0,16.8
		c10.2,0,20.7,0,31.4,0c0.1,1.1,0.2,2,0.2,2.8c-0.4,14.6-2.8,28.9-8,42.7c-6.2,16.5-15.5,30.9-29.8,41.7
		c-7.5,5.7-15.9,9.4-25.3,10.9c-1,0.2-2,0.8-2.7,1.4C128.8,122.1,126.9,124.1,125.3,125.8z M35,34.2c-6.9,0-13.4,0-20.7,0
		c1.8,7.7,3.2,15.2,5.3,22.5c2.3,8.1,5.9,15.7,10.6,22.8c4.3,6.6,9.3,12.4,15.5,17.1c2.6,2,5.6,3.6,8.4,5.4c0.2-0.2,0.3-0.4,0.5-0.6
		C43.5,80.4,37.9,57.7,35,34.2z M164.1,34.2c-2.5,11.8-4.7,23.2-7.5,34.6c-2.7,11.3-7.2,22.1-12.3,32.6
		c25.4-15.2,34.5-39.6,38.6-67.2C176.2,34.2,169.9,34.2,164.1,34.2z"/>
</g>
</svg>
