<?xml version="1.0"?>
<svg width="463.263" height="92.172" xmlns="http://www.w3.org/2000/svg" xmlns:svg="http://www.w3.org/2000/svg" xmlns:xlink="http://www.w3.org/1999/xlink">
 <g class="layer">
  <title>Layer 1</title>
  <g id="svg_1">
   <defs>
    <rect fill="#000000" height="92.172" id="SVGID_1_" width="463.262" x="0" y="0"/>
   </defs>
   <clipPath id="SVGID_2_">
    <use fill="#000000" id="svg_2" x="1" xlink:href="#SVGID_1_" y="1"/>
   </clipPath>
   <path clip-path="url(#SVGID_2_)" d="m412.133,57.732c0.055,0.201 0.109,0.405 0.168,0.603c0.018,0.06 0.034,0.12 0.053,0.18c0.107,0.351 0.224,0.694 0.345,1.034c0.036,0.103 0.074,0.204 0.112,0.306c0.102,0.275 0.209,0.547 0.32,0.816c0.032,0.075 0.061,0.151 0.093,0.226c0.139,0.326 0.286,0.647 0.439,0.962c0.041,0.086 0.084,0.169 0.127,0.254c0.126,0.254 0.257,0.504 0.393,0.75c0.043,0.079 0.085,0.158 0.129,0.235c0.172,0.304 0.35,0.601 0.535,0.894c0.041,0.064 0.084,0.127 0.125,0.191c0.157,0.241 0.318,0.478 0.484,0.711c0.053,0.075 0.106,0.151 0.16,0.225c0.206,0.281 0.416,0.557 0.635,0.826c0.031,0.038 0.063,0.074 0.094,0.112c0.195,0.236 0.397,0.468 0.603,0.696c0.063,0.07 0.126,0.139 0.19,0.208c0.239,0.257 0.483,0.512 0.737,0.758c1.445,1.383 3.082,2.551 4.911,3.503c0.732,0.38 1.494,0.726 2.287,1.037c3.568,1.402 7.758,2.102 12.57,2.102c4.942,0 9.566,-1.219 13.875,-3.658c4.308,-2.438 7.729,-5.68 10.264,-9.723l-0.76,-0.482c-2.471,3.851 -5.797,6.964 -9.979,9.339c-4.182,2.375 -8.649,3.562 -13.4,3.562c-3.992,0 -7.16,-1.605 -9.504,-4.814c-1.268,-1.797 -1.901,-8.375 -1.901,-19.735l0.002,0l-0.007,-2.566l-0.042,-0.003c0,0 -3.334,0.33 -8.709,5.255c-3.238,3.113 -4.881,5.478 -5.349,6.196m-176.433,0c0.056,0.201 0.109,0.405 0.169,0.603c0.018,0.06 0.034,0.12 0.052,0.18c0.108,0.351 0.224,0.694 0.345,1.034c0.037,0.103 0.075,0.204 0.113,0.306c0.102,0.275 0.209,0.547 0.32,0.816c0.031,0.075 0.061,0.151 0.092,0.226c0.14,0.326 0.287,0.647 0.439,0.962c0.042,0.086 0.085,0.169 0.127,0.254c0.127,0.254 0.258,0.504 0.394,0.75c0.043,0.079 0.084,0.158 0.128,0.235c0.172,0.304 0.35,0.601 0.535,0.894c0.041,0.064 0.084,0.127 0.126,0.191c0.156,0.241 0.318,0.478 0.483,0.711c0.054,0.075 0.107,0.151 0.161,0.225c0.205,0.281 0.416,0.557 0.635,0.826c0.03,0.038 0.063,0.074 0.094,0.112c0.195,0.236 0.396,0.468 0.602,0.696c0.063,0.07 0.126,0.139 0.19,0.208c0.24,0.257 0.484,0.512 0.737,0.758c1.445,1.383 3.083,2.551 4.912,3.503c0.731,0.38 1.493,0.726 2.286,1.037c3.569,1.402 7.759,2.102 12.57,2.102c4.942,0 9.567,-1.219 13.876,-3.658c4.307,-2.438 7.729,-5.68 10.264,-9.723l-0.761,-0.482c-2.471,3.851 -5.797,6.964 -9.979,9.339c-4.181,2.375 -8.648,3.562 -13.4,3.562c-3.992,0 -7.16,-1.605 -9.504,-4.814c-1.267,-1.797 -1.901,-8.375 -1.901,-19.735l0.002,0l-0.006,-2.566l-0.043,-0.003c0,0 -3.333,0.33 -8.709,5.255c-3.237,3.113 -4.881,5.478 -5.349,6.196m-178.611,-33.507c0.044,-0.056 0.087,-0.112 0.133,-0.165c-8.138,0.541 -9.999,6.365 -10.165,6.72l-11.158,27.752l-11.052,-27.531c-1.71,-4.752 -3.641,-7.127 -5.794,-7.127l-18.053,0l0,0.962c2.154,0 3.675,0.289 4.562,0.867c1.014,0.577 2.154,2.471 3.422,5.679l13.935,35.48c1.512,3.892 2.301,5.902 2.367,6.03c0.298,0.776 1.437,1.041 2.586,1.041l3.065,0l5.55,-14.04l11.462,-28.749c0.003,0 0.029,-0.071 0.031,-0.07c2.463,-5.856 8.565,-5.934 8.565,-5.934s0.121,-0.281 0.318,-0.594c0.017,-0.027 0.035,-0.054 0.053,-0.081c0.054,-0.08 0.11,-0.162 0.173,-0.24m15.102,-15.75c0,-4.128 -3.302,-7.475 -7.375,-7.475s-7.375,3.347 -7.375,7.475c0,4.129 3.302,7.476 7.375,7.476s7.375,-3.347 7.375,-7.476m14.677,57.801c0,4.378 -2.389,6.616 -7.151,6.728c-4.86,-0.091 -7.298,-2.33 -7.298,-6.73l0,-34.657c0,-4.377 2.414,-6.616 7.226,-6.728c4.81,0.091 7.223,2.331 7.223,6.731l0,34.656zm51.898,7.702l4.535,0l0,-0.963c-5.016,0 -7.524,-2.246 -7.524,-6.739l0,-25.03c0,-11.872 -8.152,-17.809 -24.455,-17.809c-3.276,0 -6.339,0.982 -9.822,3.475c-0.18,-0.421 -0.361,-0.811 -0.901,-1.472c-0.784,-0.994 -1.88,-1.522 -2.445,-1.522l-18.132,0l0,-0.002l-19.008,0c-2.534,0 -3.801,2.568 -3.801,7.701l0,34.657c0,4.493 -2.534,6.739 -7.603,6.739l0,0.963l29.733,0l0,0.002l30.098,0l0,-0.963c-5.016,0 -7.524,-2.246 -7.524,-6.739l0,-34.656c0,-1.284 -0.117,-2.997 -0.188,-3.659c3.134,-2.374 6.332,-3.562 9.593,-3.562c6.27,0 9.406,5.937 9.406,17.81l0,12.36c0.021,0.601 -0.039,1.261 0.081,2.403c0.511,12.387 11.772,17.006 17.957,17.006m42.479,-38.781c-0.353,0.486 -2.065,2.846 -2.496,3.589c-0.613,0.979 -3.195,5.183 -3.676,6.054c-0.48,0.87 -4.234,7.837 -4.234,7.837s-4.203,8.047 -10.619,12.769c-0.695,-3.567 -1.045,-9.075 -1.045,-16.543c0,-8.728 0.475,-14.793 1.426,-18.195c1.203,-4.235 4.529,-6.353 9.979,-6.353c4.815,0 7.919,1.701 9.313,5.102c0.567,1.41 1.016,3.33 1.352,5.74m7.19,-6.713c-4.471,-3.394 -10.422,-5.092 -17.855,-5.092c-8.491,0 -15.048,2.214 -19.673,6.643c-4.626,4.493 -6.938,10.782 -6.938,18.868c0,8.152 2.281,14.441 6.843,18.869c1.071,1.026 2.253,1.928 3.536,2.716c0.715,-0.341 3.922,-2.165 6.105,-3.962c0,-0.001 0,-0.002 -0.001,-0.002c0.639,-0.519 4.47,-3.68 6.766,-6.778c1.405,-1.681 4.036,-5.705 4.985,-7.699c0.828,-1.67 5.681,-10.259 6.522,-11.472c0.618,-0.952 1.904,-2.98 2.689,-4.061c0,0.002 0,0.003 0,0.005c0.046,-0.065 0.098,-0.136 0.147,-0.204c0.015,-0.021 0.032,-0.044 0.047,-0.064l0,-0.002c1.558,-2.172 4.414,-5.909 6.827,-7.765m8.755,20.419c0,-8.086 -2.313,-14.375 -6.938,-18.868c-0.197,-0.189 -0.402,-0.368 -0.606,-0.549l-0.008,0.008c0,0 -4.426,3.688 -7.996,9.395c0.227,2.85 0.342,6.183 0.342,10.014c0,9.499 -0.697,15.981 -2.091,19.447c-1.394,3.402 -4.498,5.102 -9.313,5.102c-4.951,0 -8.143,-1.754 -9.589,-5.25l-0.002,0.001c0,0 -3.153,2.402 -4.925,3.213c-0.013,0.002 -0.025,0.004 -0.039,0.006c3.97,1.992 8.818,2.993 14.555,2.993c8.553,0 15.142,-2.214 19.767,-6.643c4.562,-4.428 6.843,-10.717 6.843,-18.869m22.748,-20.772c6.919,-1.514 13.346,-7.069 13.346,-7.069s-0.403,-0.505 -0.583,-0.727c-3.249,2.685 -6.511,4.384 -7.147,4.715c-2.342,1.316 -5.183,2.01 -5.555,2.098l0,-2.312l0,-0.963l0,-13.477l-9.503,0c0,8.985 -3.042,13.477 -9.124,13.477l-0.429,0c-0.873,-0.009 -2.882,-0.018 -3.846,0.12c-1.813,0.156 -3.825,1.039 -3.825,1.039l0.33,0.865c1.961,-0.795 3.214,-0.989 4.279,-1.046c0.003,0 0.006,0 0.009,0c0.014,-0.001 0.029,-0.001 0.043,-0.003c0.341,-0.017 0.663,-0.021 0.984,-0.027c0.042,0 0.087,0 0.13,0c0.554,0.01 1.112,0.049 1.606,0.096c0.885,0.09 1.634,0.211 1.634,0.211l0,-0.001c0.433,0.111 2.397,0.637 4.895,1.61c3.015,1.045 5.153,1.658 7.603,1.79c1.863,0.112 3.827,-0.114 5.148,-0.399c0.002,0.001 0.003,0.002 0.005,0.003m14.664,39.869l-0.855,-0.385c-1.521,3.338 -4.116,5.642 -8.02,5.779c-3.799,0.134 -5.728,-3.215 -5.728,-9.762l0,-13.285l0,-20.936c-0.308,0.084 -4.056,1.055 -9.118,-0.187c-1.393,-0.384 -3.207,-0.973 -3.495,-1.081c-0.289,-0.108 -4.048,-1.478 -4.349,-1.49c-0.004,0 -0.01,-0.001 -0.015,-0.001c1.177,1.121 1.771,2.759 1.771,4.923l0,18.772c0,16.046 7.027,25.333 20.908,24.068c4.782,-0.436 7.254,-2.692 8.901,-6.415m37.108,-51.088c-0.18,-0.853 -0.192,-0.913 -0.192,-0.913s-4.889,1.453 -8.841,-1.466c-0.913,-0.661 -1.79,-1.669 -1.898,-1.826c-0.108,-0.156 -1.982,-2.822 -5.345,-3.759c-0.529,-0.12 -2.535,-0.805 -5.706,-0.169l0.204,0.913c0,0 2.679,-0.648 5.177,0.157c2.439,0.744 3.532,1.825 4.601,3.039c0.949,1.081 1.657,2.248 4.216,3.435c3.159,1.465 6.138,0.949 7.784,0.589m0.905,30.975l-0.001,0l0.001,0.181l-0.19,0.137c-2.815,-0.741 -8.593,-3.014 -13.292,-4.134c-5.013,-1.195 -8.158,-0.592 -9.245,-0.391l-0.024,-0.008c0.191,-6.791 0.867,-11.617 2.032,-14.461c1.394,-3.273 4.498,-4.91 9.314,-4.91c4.878,0 8.204,1.958 9.979,5.873c0.95,2.054 1.426,7.958 1.426,17.713m15.215,2.418l-0.009,-1.092l0,-1.427l-0.013,-0.005l-0.002,-0.239l-0.009,-0.004c-0.24,-7.457 -2.543,-13.31 -6.914,-17.557c-4.626,-4.428 -11.183,-6.642 -19.673,-6.642s-15.048,2.214 -19.673,6.642c-4.625,4.493 -6.938,10.782 -6.938,18.869c0,0.431 0.01,0.854 0.023,1.275c0.014,0.401 0.033,0.798 0.057,1.19c0.097,1.6 0.286,3.126 0.577,4.568c1.063,-1.967 7.771,-9.747 14.582,-11.234c0,-0.002 0,-0.005 0,-0.007c0.026,-0.006 0.052,-0.011 0.077,-0.017c0.083,-0.018 0.164,-0.03 0.247,-0.046c0.015,-0.003 0.031,-0.007 0.047,-0.01c0.001,0 0.002,0.001 0.003,0.001c4.042,-0.766 7.68,0.171 8.681,0.39c1.009,0.192 6.331,1.849 9.189,2.847c2.468,0.86 4.709,1.441 4.709,1.441l0.018,-0.003c0.746,0.236 8.259,2.52 15.009,1.06c0,-0.001 0,-0.002 0,-0.003l0.012,0.003zm37.766,-22.404c-0.122,1.156 -0.183,2.376 -0.183,3.658l0,38.316c-2.981,2.31 -6.021,3.465 -9.123,3.465c-3.954,0 -6.631,-1.829 -8.029,-5.487c-0.73,-2.053 -1.095,-8.375 -1.095,-18.965c0,-10.91 0.365,-17.264 1.095,-19.061c1.46,-3.658 4.136,-5.487 8.029,-5.487c3.162,0 6.264,1.187 9.306,3.561m85.878,45.07c-5.069,0 -7.603,-2.246 -7.603,-6.739l0,-34.657c0,-5.134 -1.268,-7.702 -3.802,-7.702l-19.008,0l0,0.963c5.069,0 7.603,2.247 7.603,6.739l0,34.657c0,1.284 0.064,2.503 0.191,3.658c-3.169,2.375 -6.4,3.562 -9.694,3.562c-6.337,0 -9.504,-3.369 -9.504,-10.108l0,-22.203c-0.77,-12.638 -11.581,-17.322 -18.353,-17.281l-3.994,0l0,-0.002l-18.247,0c-0.548,0 -1.202,0.498 -1.962,1.492c-0.76,0.995 -1.202,1.492 -1.323,1.492c-3.284,-2.31 -6.448,-3.465 -9.488,-3.465c-7.178,0 -12.926,2.262 -17.244,6.787c-4.319,4.524 -6.478,10.766 -6.478,18.724c0,7.959 2.144,14.184 6.432,18.676c4.289,4.493 10.051,6.739 17.29,6.739c3.04,0 6.082,-1.059 9.123,-3.177l0,14.344c0,5.134 1.216,7.702 3.65,7.702l18.247,0l0,-0.963c-4.866,0 -7.299,-2.246 -7.299,-6.739l0,-53.911c0,-4.416 2.357,-6.657 7.06,-6.731c4.918,0.066 7.38,2.322 7.38,6.747l0,25.03c0,11.873 8.236,17.81 24.71,17.81c3.167,0 6.462,-1.155 9.884,-3.466c0.126,0 0.585,0.498 1.378,1.492c0.791,0.995 1.473,1.492 2.043,1.492l19.008,0l0,-0.962zm37.573,-25.084l0,0l0,0.181l-0.19,0.137c-2.815,-0.741 -8.592,-3.014 -13.291,-4.134c-5.013,-1.195 -8.159,-0.592 -9.246,-0.391l-0.024,-0.008c0.191,-6.791 0.867,-11.617 2.033,-14.461c1.393,-3.273 4.498,-4.91 9.314,-4.91c4.878,0 8.204,1.958 9.978,5.873c0.951,2.054 1.426,7.958 1.426,17.713m15.203,0.963l0.003,0c0,-0.112 -0.005,-0.22 -0.006,-0.331l-0.008,-0.977l-0.01,-0.004c-0.239,-7.457 -2.542,-13.31 -6.914,-17.557c-4.625,-4.428 -11.183,-6.642 -19.672,-6.642c-8.491,0 -15.048,2.214 -19.673,6.642c-4.626,4.493 -6.938,10.782 -6.938,18.869c0,0.431 0.01,0.854 0.023,1.275c0.013,0.401 0.032,0.798 0.056,1.19c0.097,1.6 0.287,3.126 0.578,4.568c1.062,-1.967 7.771,-9.747 14.581,-11.234c0,-0.002 0,-0.005 0,-0.007c0.026,-0.006 0.052,-0.011 0.078,-0.017c0.082,-0.018 0.164,-0.03 0.246,-0.046c0.016,-0.003 0.031,-0.007 0.047,-0.01c0.001,0 0.002,0.001 0.004,0.001c4.042,-0.766 7.68,0.171 8.681,0.39c1.009,0.192 6.33,1.849 9.189,2.847c2.468,0.86 4.709,1.441 4.709,1.441l0.017,-0.003c0.747,0.236 8.26,2.52 15.01,1.06c0,-0.001 -0.001,-0.002 -0.001,-0.003l0.013,0.003l-0.013,-1.455z" fill="#000000" id="svg_3"/>
  </g>
 </g>
</svg>