<?xml version="1.0" encoding="utf-8"?>
<!-- Generator: Adobe Illustrator 17.0.0, SVG Export Plug-In . SVG Version: 6.00 Build 0)  -->
<!DOCTYPE svg PUBLIC "-//W3C//DTD SVG 1.1//EN" "http://www.w3.org/Graphics/SVG/1.1/DTD/svg11.dtd">
<svg version="1.1" id="Layer_1" xmlns="http://www.w3.org/2000/svg" xmlns:xlink="http://www.w3.org/1999/xlink" x="0px" y="0px"
	 width="463.263px" height="92.172px" viewBox="0 0 463.263 92.172" enable-background="new 0 0 463.263 92.172"
	 xml:space="preserve">
<g>
	<defs>
		<rect id="SVGID_1_" x="0" y="0" width="463.262" height="92.172"/>
	</defs>
	<clipPath id="SVGID_2_">
		<use xlink:href="#SVGID_1_"  overflow="visible"/>
	</clipPath>
	<path clip-path="url(#SVGID_2_)" fill="#FFFFFF" d="M411.133,56.732c0.055,0.201,0.109,0.405,0.168,0.603
		c0.018,0.06,0.034,0.12,0.053,0.18c0.107,0.351,0.224,0.694,0.345,1.034c0.036,0.103,0.074,0.204,0.112,0.306
		c0.102,0.275,0.209,0.547,0.32,0.816c0.032,0.075,0.061,0.151,0.093,0.226c0.139,0.326,0.286,0.647,0.439,0.962
		c0.041,0.086,0.084,0.169,0.127,0.254c0.126,0.254,0.257,0.504,0.393,0.75c0.043,0.079,0.085,0.158,0.129,0.235
		c0.172,0.304,0.35,0.601,0.535,0.894c0.041,0.064,0.084,0.127,0.125,0.191c0.157,0.241,0.318,0.478,0.484,0.711
		c0.053,0.075,0.106,0.151,0.16,0.225c0.206,0.281,0.416,0.557,0.635,0.826c0.031,0.038,0.063,0.074,0.094,0.112
		c0.195,0.236,0.397,0.468,0.603,0.696c0.063,0.07,0.126,0.139,0.19,0.208c0.239,0.257,0.483,0.512,0.737,0.758
		c1.445,1.383,3.082,2.551,4.911,3.503c0.732,0.38,1.494,0.726,2.287,1.037c3.568,1.402,7.758,2.102,12.57,2.102
		c4.942,0,9.566-1.219,13.875-3.658c4.308-2.438,7.729-5.68,10.264-9.723l-0.76-0.482c-2.471,3.851-5.797,6.964-9.979,9.339
		c-4.182,2.375-8.649,3.562-13.4,3.562c-3.992,0-7.16-1.605-9.504-4.814c-1.268-1.797-1.901-8.375-1.901-19.735h0.002l-0.007-2.566
		l-0.042-0.003c0,0-3.334,0.33-8.709,5.255C413.244,53.649,411.601,56.014,411.133,56.732 M234.7,56.732
		c0.056,0.201,0.109,0.405,0.169,0.603c0.018,0.06,0.034,0.12,0.052,0.18c0.108,0.351,0.224,0.694,0.345,1.034
		c0.037,0.103,0.075,0.204,0.113,0.306c0.102,0.275,0.209,0.547,0.32,0.816c0.031,0.075,0.061,0.151,0.092,0.226
		c0.14,0.326,0.287,0.647,0.439,0.962c0.042,0.086,0.085,0.169,0.127,0.254c0.127,0.254,0.258,0.504,0.394,0.75
		c0.043,0.079,0.084,0.158,0.128,0.235c0.172,0.304,0.35,0.601,0.535,0.894c0.041,0.064,0.084,0.127,0.126,0.191
		c0.156,0.241,0.318,0.478,0.483,0.711c0.054,0.075,0.107,0.151,0.161,0.225c0.205,0.281,0.416,0.557,0.635,0.826
		c0.03,0.038,0.063,0.074,0.094,0.112c0.195,0.236,0.396,0.468,0.602,0.696c0.063,0.07,0.126,0.139,0.19,0.208
		c0.24,0.257,0.484,0.512,0.737,0.758c1.445,1.383,3.083,2.551,4.912,3.503c0.731,0.38,1.493,0.726,2.286,1.037
		c3.569,1.402,7.759,2.102,12.57,2.102c4.942,0,9.567-1.219,13.876-3.658c4.307-2.438,7.729-5.68,10.264-9.723l-0.761-0.482
		c-2.471,3.851-5.797,6.964-9.979,9.339c-4.181,2.375-8.648,3.562-13.4,3.562c-3.992,0-7.16-1.605-9.504-4.814
		c-1.267-1.797-1.901-8.375-1.901-19.735h0.002l-0.006-2.566l-0.043-0.003c0,0-3.333,0.33-8.709,5.255
		C236.812,53.649,235.168,56.014,234.7,56.732 M56.089,23.225c0.044-0.056,0.087-0.112,0.133-0.165
		c-8.138,0.541-9.999,6.365-10.165,6.72L34.899,57.532L23.847,30.001c-1.71-4.752-3.641-7.127-5.794-7.127H0v0.962
		c2.154,0,3.675,0.289,4.562,0.867c1.014,0.577,2.154,2.471,3.422,5.679l13.935,35.48c1.512,3.892,2.301,5.902,2.367,6.03
		c0.298,0.776,1.437,1.041,2.586,1.041h3.065l5.55-14.04l11.462-28.749c0.003,0,0.029-0.071,0.031-0.07
		c2.463-5.856,8.565-5.934,8.565-5.934s0.121-0.281,0.318-0.594c0.017-0.027,0.035-0.054,0.053-0.081
		C55.97,23.385,56.026,23.303,56.089,23.225 M71.191,7.475C71.191,3.347,67.889,0,63.816,0s-7.375,3.347-7.375,7.475
		c0,4.129,3.302,7.476,7.375,7.476S71.191,11.604,71.191,7.475 M85.868,65.276c0,4.378-2.389,6.616-7.151,6.728
		c-4.86-0.091-7.298-2.33-7.298-6.73V30.617c0-4.377,2.414-6.616,7.226-6.728c4.81,0.091,7.223,2.331,7.223,6.731V65.276z
		 M137.766,72.978h4.535v-0.963c-5.016,0-7.524-2.246-7.524-6.739v-25.03c0-11.872-8.152-17.809-24.455-17.809
		c-3.276,0-6.339,0.982-9.822,3.475c-0.18-0.421-0.361-0.811-0.901-1.472c-0.784-0.994-1.88-1.522-2.445-1.522H79.022v-0.002H60.014
		c-2.534,0-3.801,2.568-3.801,7.701v34.657c0,4.493-2.534,6.739-7.603,6.739v0.963h29.733v0.002h30.098v-0.963
		c-5.016,0-7.524-2.246-7.524-6.739V30.62c0-1.284-0.117-2.997-0.188-3.659c3.134-2.374,6.332-3.562,9.593-3.562
		c6.27,0,9.406,5.937,9.406,17.81v12.36c0.021,0.601-0.039,1.261,0.081,2.403C120.32,68.359,131.581,72.978,137.766,72.978
		 M180.245,34.197c-0.353,0.486-2.065,2.846-2.496,3.589c-0.613,0.979-3.195,5.183-3.676,6.054c-0.48,0.87-4.234,7.837-4.234,7.837
		s-4.203,8.047-10.619,12.769c-0.695-3.567-1.045-9.075-1.045-16.543c0-8.728,0.475-14.793,1.426-18.195
		c1.203-4.235,4.529-6.353,9.979-6.353c4.815,0,7.919,1.701,9.313,5.102C179.46,29.867,179.909,31.787,180.245,34.197
		 M187.435,27.484c-4.471-3.394-10.422-5.092-17.855-5.092c-8.491,0-15.048,2.214-19.673,6.643
		c-4.626,4.493-6.938,10.782-6.938,18.868c0,8.152,2.281,14.441,6.843,18.869c1.071,1.026,2.253,1.928,3.536,2.716
		c0.715-0.341,3.922-2.165,6.105-3.962c0-0.001,0-0.002-0.001-0.002c0.639-0.519,4.47-3.68,6.766-6.778
		c1.405-1.681,4.036-5.705,4.985-7.699c0.828-1.67,5.681-10.259,6.522-11.472c0.618-0.952,1.904-2.98,2.689-4.061
		c0,0.002,0,0.003,0,0.005c0.046-0.065,0.098-0.136,0.147-0.204c0.015-0.021,0.032-0.044,0.047-0.064v-0.002
		C182.166,33.077,185.022,29.34,187.435,27.484 M196.19,47.903c0-8.086-2.313-14.375-6.938-18.868
		c-0.197-0.189-0.402-0.368-0.606-0.549l-0.008,0.008c0,0-4.426,3.688-7.996,9.395c0.227,2.85,0.342,6.183,0.342,10.014
		c0,9.499-0.697,15.981-2.091,19.447c-1.394,3.402-4.498,5.102-9.313,5.102c-4.951,0-8.143-1.754-9.589-5.25l-0.002,0.001
		c0,0-3.153,2.402-4.925,3.213c-0.013,0.002-0.025,0.004-0.039,0.006c3.97,1.992,8.818,2.993,14.555,2.993
		c8.553,0,15.142-2.214,19.767-6.643C193.909,62.344,196.19,56.055,196.19,47.903 M218.938,27.131
		c6.919-1.514,13.346-7.069,13.346-7.069s-0.403-0.505-0.583-0.727c-3.249,2.685-6.511,4.384-7.147,4.715
		c-2.342,1.316-5.183,2.01-5.555,2.098v-2.312v-0.963V9.396h-9.503c0,8.985-3.042,13.477-9.124,13.477h-0.429
		c-0.873-0.009-2.882-0.018-3.846,0.12c-1.813,0.156-3.825,1.039-3.825,1.039l0.33,0.865c1.961-0.795,3.214-0.989,4.279-1.046
		c0.003,0,0.006,0,0.009,0c0.014-0.001,0.029-0.001,0.043-0.003c0.341-0.017,0.663-0.021,0.984-0.027c0.042,0,0.087,0,0.13,0
		c0.554,0.01,1.112,0.049,1.606,0.096c0.885,0.09,1.634,0.211,1.634,0.211v-0.001c0.433,0.111,2.397,0.637,4.895,1.61
		c3.015,1.045,5.153,1.658,7.603,1.79c1.863,0.112,3.827-0.114,5.148-0.399C218.935,27.129,218.936,27.13,218.938,27.131
		 M233.602,67l-0.855-0.385c-1.521,3.338-4.116,5.642-8.02,5.779c-3.799,0.134-5.728-3.215-5.728-9.762V49.347V28.411
		c-0.308,0.084-4.056,1.055-9.118-0.187c-1.393-0.384-3.207-0.973-3.495-1.081c-0.289-0.108-4.048-1.478-4.349-1.49
		c-0.004,0-0.01-0.001-0.015-0.001c1.177,1.121,1.771,2.759,1.771,4.923v18.772c0,16.046,7.027,25.333,20.908,24.068
		C229.483,72.979,231.955,70.723,233.602,67 M270.71,15.912c-0.18-0.853-0.192-0.913-0.192-0.913s-4.889,1.453-8.841-1.466
		c-0.913-0.661-1.79-1.669-1.898-1.826c-0.108-0.156-1.982-2.822-5.345-3.759c-0.529-0.12-2.535-0.805-5.706-0.169l0.204,0.913
		c0,0,2.679-0.648,5.177,0.157c2.439,0.744,3.532,1.825,4.601,3.039c0.949,1.081,1.657,2.248,4.216,3.435
		C266.085,16.788,269.064,16.272,270.71,15.912 M271.615,46.887h-0.001l0.001,0.181l-0.19,0.137
		c-2.815-0.741-8.593-3.014-13.292-4.134c-5.013-1.195-8.158-0.592-9.245-0.391l-0.024-0.008c0.191-6.791,0.867-11.617,2.032-14.461
		c1.394-3.273,4.498-4.91,9.314-4.91c4.878,0,8.204,1.958,9.979,5.873C271.139,31.228,271.615,37.132,271.615,46.887 M286.83,49.305
		l-0.009-1.092v-1.427l-0.013-0.005l-0.002-0.239l-0.009-0.004c-0.24-7.457-2.543-13.31-6.914-17.557
		c-4.626-4.428-11.183-6.642-19.673-6.642s-15.048,2.214-19.673,6.642c-4.625,4.493-6.938,10.782-6.938,18.869
		c0,0.431,0.01,0.854,0.023,1.275c0.014,0.401,0.033,0.798,0.057,1.19c0.097,1.6,0.286,3.126,0.577,4.568
		c1.063-1.967,7.771-9.747,14.582-11.234c0-0.002,0-0.005,0-0.007c0.026-0.006,0.052-0.011,0.077-0.017
		c0.083-0.018,0.164-0.03,0.247-0.046c0.015-0.003,0.031-0.007,0.047-0.01c0.001,0,0.002,0.001,0.003,0.001
		c4.042-0.766,7.68,0.171,8.681,0.39c1.009,0.192,6.331,1.849,9.189,2.847c2.468,0.86,4.709,1.441,4.709,1.441l0.018-0.003
		c0.746,0.236,8.259,2.52,15.009,1.06c0-0.001,0-0.002,0-0.003L286.83,49.305z M324.596,26.901
		c-0.122,1.156-0.183,2.376-0.183,3.658v38.316c-2.981,2.31-6.021,3.465-9.123,3.465c-3.954,0-6.631-1.829-8.029-5.487
		c-0.73-2.053-1.095-8.375-1.095-18.965c0-10.91,0.365-17.264,1.095-19.061c1.46-3.658,4.136-5.487,8.029-5.487
		C318.452,23.34,321.554,24.527,324.596,26.901 M410.474,71.971c-5.069,0-7.603-2.246-7.603-6.739V30.575
		c0-5.134-1.268-7.702-3.802-7.702h-19.008v0.963c5.069,0,7.603,2.247,7.603,6.739v34.657c0,1.284,0.064,2.503,0.191,3.658
		c-3.169,2.375-6.4,3.562-9.694,3.562c-6.337,0-9.504-3.369-9.504-10.108V40.141c-0.77-12.638-11.581-17.322-18.353-17.281h-3.994
		v-0.002h-18.247c-0.548,0-1.202,0.498-1.962,1.492c-0.76,0.995-1.202,1.492-1.323,1.492c-3.284-2.31-6.448-3.465-9.488-3.465
		c-7.178,0-12.926,2.262-17.244,6.787c-4.319,4.524-6.478,10.766-6.478,18.724c0,7.959,2.144,14.184,6.432,18.676
		c4.289,4.493,10.051,6.739,17.29,6.739c3.04,0,6.082-1.059,9.123-3.177V84.47c0,5.134,1.216,7.702,3.65,7.702h18.247v-0.963
		c-4.866,0-7.299-2.246-7.299-6.739V30.559c0-4.416,2.357-6.657,7.06-6.731c4.918,0.066,7.38,2.322,7.38,6.747v25.03
		c0,11.873,8.236,17.81,24.71,17.81c3.167,0,6.462-1.155,9.884-3.466c0.126,0,0.585,0.498,1.378,1.492
		c0.791,0.995,1.473,1.492,2.043,1.492h19.008V71.971z M448.047,46.887L448.047,46.887v0.181l-0.19,0.137
		c-2.815-0.741-8.592-3.014-13.291-4.134c-5.013-1.195-8.159-0.592-9.246-0.391l-0.024-0.008c0.191-6.791,0.867-11.617,2.033-14.461
		c1.393-3.273,4.498-4.91,9.314-4.91c4.878,0,8.204,1.958,9.978,5.873C447.572,31.228,448.047,37.132,448.047,46.887 M463.25,47.85
		h0.003c0-0.112-0.005-0.22-0.006-0.331l-0.008-0.977l-0.01-0.004c-0.239-7.457-2.542-13.31-6.914-17.557
		c-4.625-4.428-11.183-6.642-19.672-6.642c-8.491,0-15.048,2.214-19.673,6.642c-4.626,4.493-6.938,10.782-6.938,18.869
		c0,0.431,0.01,0.854,0.023,1.275c0.013,0.401,0.032,0.798,0.056,1.19c0.097,1.6,0.287,3.126,0.578,4.568
		c1.062-1.967,7.771-9.747,14.581-11.234c0-0.002,0-0.005,0-0.007c0.026-0.006,0.052-0.011,0.078-0.017
		c0.082-0.018,0.164-0.03,0.246-0.046c0.016-0.003,0.031-0.007,0.047-0.01c0.001,0,0.002,0.001,0.004,0.001
		c4.042-0.766,7.68,0.171,8.681,0.39c1.009,0.192,6.33,1.849,9.189,2.847c2.468,0.86,4.709,1.441,4.709,1.441l0.017-0.003
		c0.747,0.236,8.26,2.52,15.01,1.06c0-0.001-0.001-0.002-0.001-0.003l0.013,0.003L463.25,47.85z"/>
</g>
</svg>
